{"title":"Paramparca S01E48 DVB-T By Ari Gr Subs (Ragismenes Kardies)","uid":13084128,"size":392005642,"categoryP":"video","categoryS":"tv_shows","magnet":"?xt=urn:btih:ed1b38518ca95338ac8b6a3dbee04125ed53e7a0&amp;dn=Paramparca+S01E48+DVB-T+By+Ari+Gr+Subs+%28Ragismenes+Kardies%29&amp;tr=udp%3A%2F%2Ftracker.leechers-paradise.org%3A6969&amp;tr=udp%3A%2F%2Fzer0day.ch%3A1337&amp;tr=udp%3A%2F%2Fopen.demonii.com%3A1337&amp;tr=udp%3A%2F%2Ftracker.coppersurfer.tk%3A6969&amp;tr=udp%3A%2F%2Fexodus.desync.com%3A6969","seeders":0,"leechers":0,"uploader":"Aris2015","files":1,"time":1450944817,"description":"ÎœÎµÏ„Î¬ Ï„Î¿ ÎºÎ±Ï„Î­Î²Î±ÏƒÎ¼Î±, ÏƒÏ…Î½ÎµÏ‡Î¯ÏƒÏ„Îµ Î½Î± seedÎ±ÏÎµÏ„Îµ, Ï„Î¿Ï…Î»Î¬Ï‡Î¹ÏƒÏ„Î¿Î½ Î¼Î­Ï‡ÏÎ¹ Ï„Î¿ share ratio Î½Î± Î´ÎµÎ¯Î¾ÎµÎ¹ 3,00 Î•Ï„ÏƒÎ¹ Î²Î¿Î·Î¸Î¬Ï„Îµ ÎºÎ±Î¹ Ï„Î¿Ï…Ï‚ Î¬Î»Î»Î¿Ï…Ï‚, ÎºÎ±Î¹ Ï„Î± Î±ÏÏ‡ÎµÎ¯Î± Ï€Î±ÏÎ±Î¼Î­Î½Î¿Ï…Î½ ÎµÎ½ÎµÏÎ³Î¬ Î³Î¹Î± Ï€Î¿Î»Ï ÎºÎ±Î¹ÏÏŒ... \r\n\r\nÎ Î¡ÎŸÎ£ÎŸÎ§Î—: ÎœÎ•Î¤Î‘ Î¤ÎŸ Î¤Î•Î›ÎŸÎ£ Î¤ÎŸÎ¥ ÎšÎ‘Î¤Î•Î’Î‘Î£ÎœÎ‘Î¤ÎŸÎ£, ÎœÎ— Î¤ÎŸ Î”Î™Î‘Î“Î¡Î‘Î¨Î•Î¤Î• Î‘Î ÎŸ Î¤ÎŸ Î¤ÎŸÎ¡Î¡Î•ÎÎ¤. ÎšÎ¡Î‘Î¤Î©ÎÎ¤Î‘Î£ Î¤ÎŸ ÎšÎ‘Î™ SEEDÎ‘Î¡ÎŸÎÎ¤Î‘Î£, Î”Î™ÎÎ•Î¤Î• Î¤Î‘Î§Î¥Î¤Î—Î¤Î‘ Î£Î¤ÎŸÎ¥Î£ Î‘Î›Î›ÎŸÎ¥Î£!\r\n\r\nGeneral\r\nComplete name               : Paramparca S01E48 DVB-T By Ari.mp4\r\nFormat                      : MPEG-4\r\nFormat profile              : Base Media\r\nCodec ID                    : isom (isom/iso2/avc1/mp41)\r\nFile size                   : 374 MiB\r\nDuration                    : 46mn 5s\r\nOverall bit rate mode       : Variable\r\nOverall bit rate            : 1 134 Kbps\r\nMovie name                  : Paramparca S01E48 DVB-T\r\nPerformer                   : ARI\r\nGenre                       : DRAMA\r\nRecorded date               : 2015\r\nWriting application         : Lavf55.37.100\r\n\r\nVideo\r\nID                          : 1\r\nFormat                      : AVC\r\nFormat/Info                 : Advanced Video Codec\r\nFormat profile              :   \r\nFormat settings, CABAC      : Yes\r\nFormat settings, ReFrames   : 6 frames\r\nCodec ID                    : avc1\r\nCodec ID/Info               : Advanced Video Coding\r\nDuration                    : 46mn 5s\r\nBit rate mode               : Variable\r\nBit rate                    : 1 000 Kbps\r\nMaximum bit rate            : 17.5 Mbps\r\nWidth                       : 720 pixels\r\nHeight                      : 576 pixels\r\nDisplay aspect ratio        : 16:9\r\nFrame rate mode             : Constant\r\nFrame rate                  : 25.000 fps\r\nStandard                    : PAL\r\nColor space                 : YUV\r\nChroma subsampling          : 4:2:0\r\nBit depth                   : 8 bits\r\nScan type                   : Progressive\r\nBits/(Pixel*Frame)          : 0.096\r\nStream size                 : 330 MiB (88%)\r\nWriting library             : x264 core 142 r2409\r\n\r\n\r\nAudio\r\nID                          : 2\r\nFormat                      : AAC\r\nFormat/Info                 : Advanced Audio Codec\r\nFormat profile              : LC\r\nCodec ID                    : 40\r\nDuration                    : 46mn 5s\r\nDuration_LastFrame          : -19ms\r\nBit rate mode               : Constant\r\nBit rate                    : 128 Kbps\r\nChannel(s)                  : 2 channels\r\nChannel positions           : Front: L R\r\nSampling rate               : 48.0 KHz\r\nFrame rate                  : 46.875 fps (1024 spf)\r\nCompression mode            : Lossy\r\nStream size                 : 42.2 MiB (11%)\r\nLanguage                    : Turkish\r\nDefault                     : Yes","torrent":{"xt":"urn:btih:ed1b38518ca95338ac8b6a3dbee04125ed53e7a0","amp;dn":"Paramparca+S01E48+DVB-T+By+Ari+Gr+Subs+%28Ragismenes+Kardies%29","amp;tr":["udp%3A%2F%2Ftracker.leechers-paradise.org%3A6969","udp%3A%2F%2Fzer0day.ch%3A1337","udp%3A%2F%2Fopen.demonii.com%3A1337","udp%3A%2F%2Ftracker.coppersurfer.tk%3A6969","udp%3A%2F%2Fexodus.desync.com%3A6969"],"infoHash":"ed1b38518ca95338ac8b6a3dbee04125ed53e7a0","infoHashBuffer":{"type":"Buffer","data":[237,27,56,81,140,169,83,56,172,139,106,61,190,224,65,37,237,83,231,160]},"announce":[],"urlList":[]}}